<svg xmlns="http://www.w3.org/2000/svg" viewBox="0 0 391.52 310.44"><defs><style>.cls-1{fill:#004fbc;}.cls-2{font-size:24px;font-family:Roboto-LightItalic, Roboto;font-style:italic;}.cls-2,.cls-3,.cls-5{fill:#212121;}.cls-3{font-size:63.47px;font-family:Roboto-BoldCondensed, Roboto;font-weight:700;}.cls-4{letter-spacing:-0.12em;}.cls-5{font-size:33.97px;font-family:Roboto-Condensed, Roboto;}</style></defs><title>Asset 51400</title><g id="Layer_2" data-name="Layer 2"><g id="Layer_1-2" data-name="Layer 1"><path class="cls-1" d="M230.4,158.85a4.42,4.42,0,1,1-4.38-4.49A4.46,4.46,0,0,1,230.4,158.85Z"/><path class="cls-1" d="M284.09,51.6V15.48h-40V27.09L195.4,0,76.73,69.34V84.49h30v70l88.68,51.6,88.69-50.63V83.85h30.64V69.34Zm-93.78,92.59q-11,11-22,22a10.29,10.29,0,0,1-13.86.89,10.49,10.49,0,0,1-1-16.16q10.82-10.86,21.67-21.71c.18-.18.37-.36.53-.5l3.22,3.36a2.26,2.26,0,0,0-.67.4q-10.89,10.88-21.75,21.76c-.22.24-.46.46-.66.7a1.77,1.77,0,0,0,.11,2.25,1.7,1.7,0,0,0,2.29.16,5.39,5.39,0,0,0,.7-.65q10.86-10.86,21.67-21.71c.25-.25.45-.53.63-.74,1.36,1.34,2.61,2.58,3.94,3.91l-.62.64q-10.89,10.92-21.8,21.84a5.39,5.39,0,0,0-.65.7,1.73,1.73,0,0,0,.22,2.23,1.68,1.68,0,0,0,2.16.17,6,6,0,0,0,.69-.65q10.92-10.9,21.8-21.84a5,5,0,0,0,.6-.72l3.2,3.24Zm39.29,24.87c-.58.17-1.17.3-1.77.44h-2.78c-.08,0-.14-.11-.22-.13a13.94,13.94,0,0,1-8-4.27q-20.7-20.78-41.43-41.53a1.54,1.54,0,0,0-1.66-.52,19.05,19.05,0,0,1-7,.19A20.9,20.9,0,0,1,148.8,102.8a16.26,16.26,0,0,1,.6-5.23c.29.27.51.47.7.66,2.43,2.43,4.84,4.86,7.28,7.28a6.61,6.61,0,0,0,9.84,0l5.42-5.42c3.14-3.17,3.13-7,0-10.22-2.39-2.38-4.76-4.77-7.15-7.16-.19-.19-.37-.41-.63-.68l3-.58h3.83a3.06,3.06,0,0,0,.49.15,21,21,0,0,1,18.13,24.93,1.51,1.51,0,0,0,.49,1.58L232.61,150a13.48,13.48,0,0,1,4,8.54A9.94,9.94,0,0,1,229.6,169.06Zm7.82-81.29c-2.83,4.53-5.64,9.07-8.5,13.58a2.29,2.29,0,0,1-1.09.87c-2.27.8-4.56,1.52-6.83,2.31a3.9,3.9,0,0,0-1.45.9c-4.23,4.19-8.42,8.41-12.63,12.63a6.65,6.65,0,0,0-.54.69c-1.95-1.94-3.78-3.77-5.66-5.67.11-.13.32-.36.54-.58,4.24-4.26,8.5-8.5,12.73-12.77a3.76,3.76,0,0,0,.8-1.31c.8-2.29,1.52-4.63,2.34-6.92a2.33,2.33,0,0,1,.86-1.1c4.49-2.84,9-5.64,13.49-8.46.25-.16.48-.32.71-.49h.18c1.31,1.35,2.6,2.71,3.91,4,.51.52,1.06,1,1.59,1.48Zm-102-18.65,3-2.79H252.27l2.8,2.79ZM296,73.85,195.73,15.48,96.4,73.85H83.18L195.4,8.71,307.63,73.85Z"/><path class="cls-1" d="M226,163.21a4.43,4.43,0,1,1,4.44-4.36A4.44,4.44,0,0,1,226,163.21Z"/><text class="cls-2" transform="translate(0 303.94)">Modern Home Repair &amp; Management</text><text class="cls-3" transform="translate(20.82 274.09)">SIMP<tspan class="cls-4" x="132.82" y="0">L</tspan><tspan x="156.22" y="0">Y DONE</tspan></text><text class="cls-5" transform="translate(371.13 253.6)">™</text></g></g></svg>