<svg xmlns="http://www.w3.org/2000/svg" viewBox="0 0 390.28 309.06"><defs><style>.cls-1{fill:#004fbc;}.cls-2{fill:#212121;}</style></defs><title>Asset 6800px</title><g id="Layer_2" data-name="Layer 2"><g id="Layer_1-2" data-name="Layer 1"><path class="cls-1" d="M229.16,158.85a4.42,4.42,0,1,1-4.39-4.49A4.46,4.46,0,0,1,229.16,158.85Z"/><path class="cls-1" d="M282.85,51.6V15.48h-40V27.09L194.16,0,75.48,69.34V84.49h30v70l88.68,51.6,88.69-50.63V83.85h30.63V69.34Zm-93.78,92.59q-11,11-22,22a10.29,10.29,0,0,1-13.86.89,10.49,10.49,0,0,1-1-16.16q10.82-10.86,21.67-21.71l.53-.5c1,1.05,2,2.09,3.23,3.36a2.26,2.26,0,0,0-.67.4Q166,143.37,155.18,154.25c-.22.24-.47.46-.66.7a1.78,1.78,0,0,0,.1,2.25,1.72,1.72,0,0,0,2.3.16,5.39,5.39,0,0,0,.7-.65L179.29,135c.24-.25.45-.53.63-.74,1.36,1.34,2.61,2.58,3.94,3.91l-.62.64q-10.91,10.92-21.8,21.84a5.39,5.39,0,0,0-.65.7,1.72,1.72,0,0,0,.22,2.23,1.67,1.67,0,0,0,2.15.17,5.39,5.39,0,0,0,.7-.65q10.92-10.9,21.8-21.84a5.63,5.63,0,0,0,.59-.72l3.2,3.24C189.34,143.91,189.21,144.05,189.07,144.19Zm39.29,24.87c-.58.17-1.17.3-1.77.44h-2.78a1.79,1.79,0,0,0-.22-.13,13.94,13.94,0,0,1-8-4.27q-20.7-20.78-41.43-41.53a1.56,1.56,0,0,0-1.67-.52,19,19,0,0,1-7,.19,20.89,20.89,0,0,1-17.93-20.44,16.26,16.26,0,0,1,.6-5.23l.7.66q3.63,3.64,7.27,7.28a6.62,6.62,0,0,0,9.85,0l5.41-5.42c3.15-3.17,3.14-7,0-10.22-2.39-2.38-4.76-4.77-7.15-7.16-.19-.19-.38-.41-.63-.68l3-.58h3.83a3.06,3.06,0,0,0,.49.15,20.94,20.94,0,0,1,18.12,24.93,1.55,1.55,0,0,0,.49,1.58Q210.47,129,231.36,150a13.45,13.45,0,0,1,4,8.54A10,10,0,0,1,228.36,169.06Zm7.82-81.29c-2.83,4.53-5.64,9.07-8.5,13.58a2.38,2.38,0,0,1-1.09.87c-2.27.8-4.56,1.52-6.84,2.31a3.94,3.94,0,0,0-1.44.9c-4.23,4.19-8.42,8.41-12.63,12.63a6.65,6.65,0,0,0-.54.69c-1.95-1.94-3.78-3.77-5.66-5.67.11-.13.32-.36.54-.58,4.24-4.26,8.5-8.5,12.73-12.77a3.76,3.76,0,0,0,.8-1.31c.8-2.29,1.52-4.63,2.34-6.92a2.33,2.33,0,0,1,.86-1.1c4.49-2.84,9-5.64,13.49-8.46.25-.16.48-.32.71-.49h.18c1.31,1.35,2.6,2.71,3.91,4,.5.52,1.06,1,1.59,1.48C236.43,87.32,236.31,87.55,236.18,87.77Zm-102-18.65,3-2.79H251l2.8,2.79Zm160.6,4.73L194.48,15.48,95.16,73.85H81.93L194.16,8.71,306.39,73.85Z"/><path class="cls-1" d="M224.72,163.21a4.43,4.43,0,1,1,4.44-4.36A4.44,4.44,0,0,1,224.72,163.21Z"/><path class="cls-2" d="M8.51,301.89h.07l8.6-15h1.71l-2.55,17.06H14.93l2.14-14.32-.07,0L8.74,303.94h-1l-4.05-14.7H3.61l-2.2,14.7H0l2.55-17.06H4.43Z"/><path class="cls-2" d="M20.57,297.41a7.83,7.83,0,0,1,2.2-4.64A6,6,0,0,1,27.12,291a4.36,4.36,0,0,1,3.75,1.81,6,6,0,0,1,.91,4.57l-.06.39a7.88,7.88,0,0,1-2.22,4.65,5.94,5.94,0,0,1-4.33,1.74,4.41,4.41,0,0,1-3.77-1.81,6,6,0,0,1-.89-4.58Zm1.34.39a5.48,5.48,0,0,0,.54,3.74,3.11,3.11,0,0,0,2.9,1.46,4.29,4.29,0,0,0,3.26-1.51,7,7,0,0,0,1.72-3.69l.06-.39a5.45,5.45,0,0,0-.57-3.72,3.12,3.12,0,0,0-2.88-1.47,4.27,4.27,0,0,0-3.27,1.53,6.83,6.83,0,0,0-1.7,3.66Z"/><path class="cls-2" d="M34.11,297.71a9.46,9.46,0,0,1,2-4.92A4.87,4.87,0,0,1,40,291a4,4,0,0,1,2.17.56,4,4,0,0,1,1.42,1.62l1.12-7.55h1.41l-2.74,18.28H42.2l.08-1.84a5.44,5.44,0,0,1-1.87,1.55,5.36,5.36,0,0,1-2.43.54,3.59,3.59,0,0,1-3.26-1.72,6.46,6.46,0,0,1-.64-4.52Zm1.37.24a5.92,5.92,0,0,0,.36,3.7A2.65,2.65,0,0,0,38.41,303a4.4,4.4,0,0,0,2.32-.62,5.28,5.28,0,0,0,1.7-1.69l.91-6a3.76,3.76,0,0,0-1.1-1.77,3.24,3.24,0,0,0-2.19-.68,3.65,3.65,0,0,0-3,1.55,8.12,8.12,0,0,0-1.55,3.92Z"/><path class="cls-2" d="M51.87,304.19a4.36,4.36,0,0,1-3.69-1.76,5.67,5.67,0,0,1-.92-4.45l.11-.65a7.64,7.64,0,0,1,2.21-4.58A5.78,5.78,0,0,1,53.71,291a3.8,3.8,0,0,1,3.3,1.5,5.28,5.28,0,0,1,.7,4l-.16,1.09H48.73l-.06.39a5.14,5.14,0,0,0,.54,3.63A3.11,3.11,0,0,0,52,303a6.5,6.5,0,0,0,2.18-.38,5.69,5.69,0,0,0,1.78-1l.46,1a6.27,6.27,0,0,1-1.93,1.16A7.06,7.06,0,0,1,51.87,304.19Zm1.66-12a4,4,0,0,0-2.79,1.17,6,6,0,0,0-1.7,2.93l0,.07h7.26l0-.29a3.89,3.89,0,0,0-.46-2.81A2.66,2.66,0,0,0,53.53,292.22Z"/><path class="cls-2" d="M67,292.47l-1-.07a3.54,3.54,0,0,0-2.26.77,5.46,5.46,0,0,0-1.56,2.1l-1.3,8.67h-1.4l1.9-12.68h1.23l-.14,2.11,0,.07a5.39,5.39,0,0,1,1.74-1.78,4.31,4.31,0,0,1,2.31-.63,2.59,2.59,0,0,1,.48,0,2,2,0,0,1,.38.08Z"/><path class="cls-2" d="M70.58,293.38a5.45,5.45,0,0,1,1.91-1.74A5.17,5.17,0,0,1,75,291,3.35,3.35,0,0,1,78,292.3a5.27,5.27,0,0,1,.53,3.92l-1.16,7.72H75.91l1.16-7.71q.33-2.26-.33-3.12a2.58,2.58,0,0,0-2.2-.87A4.13,4.13,0,0,0,72,293a5.44,5.44,0,0,0-1.67,2L69,303.94H67.63l1.9-12.68h1.24Z"/><path class="cls-2" d="M99.66,303.94H98.25l1.17-7.85H89.73l-1.17,7.85H87.15l2.56-17.06h1.4l-1.2,8H99.6l1.2-8h1.41Z"/><path class="cls-2" d="M103.89,297.41a7.83,7.83,0,0,1,2.2-4.64,6,6,0,0,1,4.35-1.74,4.36,4.36,0,0,1,3.75,1.81,6,6,0,0,1,.91,4.57l-.06.39a7.88,7.88,0,0,1-2.22,4.65,5.94,5.94,0,0,1-4.33,1.74,4.41,4.41,0,0,1-3.77-1.81,6,6,0,0,1-.89-4.58Zm1.34.39a5.48,5.48,0,0,0,.54,3.74,3.11,3.11,0,0,0,2.9,1.46,4.29,4.29,0,0,0,3.26-1.51,7,7,0,0,0,1.72-3.69l.06-.39a5.45,5.45,0,0,0-.57-3.72,3.12,3.12,0,0,0-2.88-1.47,4.27,4.27,0,0,0-3.27,1.53,6.83,6.83,0,0,0-1.7,3.66Z"/><path class="cls-2" d="M120,293.26a5.16,5.16,0,0,1,4.38-2.23,3.56,3.56,0,0,1,2.26.69,3.25,3.25,0,0,1,1.11,2.11,5.87,5.87,0,0,1,1.94-2.07,5,5,0,0,1,2.7-.73,3.27,3.27,0,0,1,2.9,1.36,5.87,5.87,0,0,1,.52,4.16l-1.11,7.39h-1.41l1.12-7.42c.24-1.62.14-2.74-.31-3.36a2.54,2.54,0,0,0-2.18-.92,3.62,3.62,0,0,0-2.6,1,5.87,5.87,0,0,0-1.53,2.57l-.07.51-1.14,7.61h-1.42l1.11-7.42a4.76,4.76,0,0,0-.32-3.33,2.48,2.48,0,0,0-2.17-.95,3.83,3.83,0,0,0-2.44.78,5.22,5.22,0,0,0-1.57,2.06l-1.32,8.86H117l1.9-12.68h1.24Z"/><path class="cls-2" d="M143.1,304.19a4.36,4.36,0,0,1-3.69-1.76,5.67,5.67,0,0,1-.92-4.45l.11-.65a7.64,7.64,0,0,1,2.21-4.58,5.78,5.78,0,0,1,4.13-1.72,3.8,3.8,0,0,1,3.3,1.5,5.33,5.33,0,0,1,.71,4l-.17,1.09H140l-.06.39a5.14,5.14,0,0,0,.54,3.63,3.11,3.11,0,0,0,2.83,1.39,6.5,6.5,0,0,0,2.18-.38,5.69,5.69,0,0,0,1.78-1l.46,1a6.27,6.27,0,0,1-1.93,1.16A7.06,7.06,0,0,1,143.1,304.19Zm1.66-12a4,4,0,0,0-2.79,1.17,6,6,0,0,0-1.7,2.93l0,.07h7.26l0-.29a3.89,3.89,0,0,0-.46-2.81A2.66,2.66,0,0,0,144.76,292.22Z"/><path class="cls-2" d="M159.35,296.23l-1.15,7.71h-1.4l2.55-17.05H165a5.73,5.73,0,0,1,4,1.21,3.69,3.69,0,0,1,1,3.5,4.62,4.62,0,0,1-1.16,2.47,5.27,5.27,0,0,1-2.46,1.54,3.12,3.12,0,0,1,2.06,1.44,4,4,0,0,1,.36,2.54l-.25,1.61a4.41,4.41,0,0,0,0,1.44,1.8,1.8,0,0,0,.48,1l-.05.28h-1.43a2,2,0,0,1-.43-1.18,7.78,7.78,0,0,1,0-1.59l.24-1.55a2.79,2.79,0,0,0-.63-2.51,3.61,3.61,0,0,0-2.7-.88Zm.19-1.2h4.11a5.57,5.57,0,0,0,3.47-.95,3.71,3.71,0,0,0,1.49-2.49A2.87,2.87,0,0,0,168,289a4.42,4.42,0,0,0-3.09-.88h-4.28Z"/><path class="cls-2" d="M176.94,304.19a4.36,4.36,0,0,1-3.69-1.76,5.67,5.67,0,0,1-.91-4.45l.1-.65a7.64,7.64,0,0,1,2.21-4.58,5.8,5.8,0,0,1,4.13-1.72,3.77,3.77,0,0,1,3.3,1.5,5.33,5.33,0,0,1,.71,4l-.17,1.09H173.8l-.06.39a5.19,5.19,0,0,0,.55,3.63,3.1,3.1,0,0,0,2.83,1.39,6.48,6.48,0,0,0,2.17-.38,5.74,5.74,0,0,0,1.79-1l.46,1a6.39,6.39,0,0,1-1.93,1.16A7.11,7.11,0,0,1,176.94,304.19Zm1.67-12a3.94,3.94,0,0,0-2.79,1.17,6,6,0,0,0-1.7,2.93l0,.07h7.27l0-.29a3.89,3.89,0,0,0-.46-2.81A2.64,2.64,0,0,0,178.61,292.22Z"/><path class="cls-2" d="M195.62,298a8.52,8.52,0,0,1-2,4.6,5,5,0,0,1-3.82,1.64,4.45,4.45,0,0,1-2.22-.53,3.52,3.52,0,0,1-1.44-1.47l-1,6.63h-1.4l2.62-17.56h1.08l0,2a5.56,5.56,0,0,1,1.89-1.64,5.21,5.21,0,0,1,2.45-.57,3.5,3.5,0,0,1,3.26,1.84,7.48,7.48,0,0,1,.61,4.84Zm-1.37-.24a6.73,6.73,0,0,0-.36-4,2.64,2.64,0,0,0-2.59-1.49,4,4,0,0,0-2.36.7,5.46,5.46,0,0,0-1.64,1.77l-.91,6.08a3.11,3.11,0,0,0,1.15,1.62,3.54,3.54,0,0,0,2.16.59,3.74,3.74,0,0,0,3-1.4,7.21,7.21,0,0,0,1.54-3.65Z"/><path class="cls-2" d="M205.9,303.94c0-.48,0-.88,0-1.18a6,6,0,0,1,.07-.94,6.44,6.44,0,0,1-2.1,1.69,5.91,5.91,0,0,1-2.8.68,3.48,3.48,0,0,1-2.71-1,3.06,3.06,0,0,1-.66-2.67,3.87,3.87,0,0,1,1.9-2.79,7.47,7.47,0,0,1,4-1h3.12l.23-1.57a2.4,2.4,0,0,0-.53-2.16,3.13,3.13,0,0,0-2.32-.75,4.13,4.13,0,0,0-2.41.71,2.6,2.6,0,0,0-1.18,1.76h-1.29l0-.07a3.53,3.53,0,0,1,1.6-2.53,5.79,5.79,0,0,1,3.54-1.06,4.44,4.44,0,0,1,3.16,1.07,3.3,3.3,0,0,1,.85,3l-.94,6.24a12.61,12.61,0,0,0-.13,1.31,7.37,7.37,0,0,0,.07,1.24Zm-4.51-1a5.54,5.54,0,0,0,2.87-.77,4.84,4.84,0,0,0,1.93-2l.38-2.43h-3.13a5.19,5.19,0,0,0-2.91.82,2.88,2.88,0,0,0-1.45,1.95,2,2,0,0,0,.44,1.76A2.47,2.47,0,0,0,201.39,302.94Z"/><path class="cls-2" d="M212.34,303.94H211l1.9-12.68h1.39Zm2.45-16.31H213.4l.29-2h1.4Z"/><path class="cls-2" d="M223.73,292.47l-1-.07a3.52,3.52,0,0,0-2.26.77,5.27,5.27,0,0,0-1.56,2.1l-1.3,8.67h-1.41l1.9-12.68h1.23l-.14,2.11v.07a5.37,5.37,0,0,1,1.73-1.78,4.31,4.31,0,0,1,2.31-.63,2.63,2.63,0,0,1,.49,0,2,2,0,0,1,.38.08Z"/><path class="cls-2" d="M234.34,294.62a8.76,8.76,0,0,1-1.08-2.14,4.27,4.27,0,0,1-.16-2,4.42,4.42,0,0,1,1.46-2.9,4.66,4.66,0,0,1,3-1,3.2,3.2,0,0,1,2.49,1,2.73,2.73,0,0,1,.67,2.38,3.57,3.57,0,0,1-.8,1.83,9.24,9.24,0,0,1-1.75,1.51l-2.08,1.43,4,5.61a7.86,7.86,0,0,0,1.19-1.86,8,8,0,0,0,.65-2.18h1.29a9.86,9.86,0,0,1-.85,2.8,9.14,9.14,0,0,1-1.57,2.24l1.83,2.59h-1.68l-1.19-1.65a8.7,8.7,0,0,1-2.39,1.4,7.06,7.06,0,0,1-2.62.5,5,5,0,0,1-3.65-1.28,3.61,3.61,0,0,1-1-3.32,4.67,4.67,0,0,1,1.21-2.55,15.43,15.43,0,0,1,2.82-2.29Zm.57,8.38a5.65,5.65,0,0,0,2.12-.43,8,8,0,0,0,2.06-1.23l-4-5.61-.14-.19-.61.42a8.82,8.82,0,0,0-2.12,2,4,4,0,0,0-.7,1.64,2.85,2.85,0,0,0,.61,2.46A3.53,3.53,0,0,0,234.91,303Zm-.41-12.52a3.55,3.55,0,0,0,.13,1.61,6.66,6.66,0,0,0,.87,1.76l2.31-1.55a4.1,4.1,0,0,0,1.13-1.1,3.08,3.08,0,0,0,.47-1.23,1.81,1.81,0,0,0-.38-1.55,2.09,2.09,0,0,0-1.63-.59,2.68,2.68,0,0,0-1.94.76A3.22,3.22,0,0,0,234.5,290.48Z"/><path class="cls-2" d="M259.69,301.89h.07l8.6-15h1.71l-2.55,17.06h-1.41l2.14-14.32-.07,0-8.26,14.34h-1l-4.05-14.7h-.07l-2.2,14.7h-1.41l2.55-17.06h1.88Z"/><path class="cls-2" d="M279.57,303.94c0-.48,0-.88,0-1.18a6,6,0,0,1,.07-.94,6.51,6.51,0,0,1-2.09,1.69,6,6,0,0,1-2.81.68,3.46,3.46,0,0,1-2.7-1,3.06,3.06,0,0,1-.66-2.67,3.83,3.83,0,0,1,1.89-2.79,7.5,7.5,0,0,1,4-1h3.12l.23-1.57a2.43,2.43,0,0,0-.53-2.16,3.15,3.15,0,0,0-2.33-.75,4.12,4.12,0,0,0-2.4.71,2.56,2.56,0,0,0-1.18,1.76h-1.29l0-.07a3.56,3.56,0,0,1,1.6-2.53A5.84,5.84,0,0,1,278,291a4.48,4.48,0,0,1,3.16,1.07,3.3,3.3,0,0,1,.85,3l-.94,6.24a10.36,10.36,0,0,0-.13,1.31,6.45,6.45,0,0,0,.07,1.24Zm-4.51-1a5.54,5.54,0,0,0,2.87-.77,4.87,4.87,0,0,0,1.94-2l.37-2.43h-3.13a5.23,5.23,0,0,0-2.91.82,2.88,2.88,0,0,0-1.45,1.95,2,2,0,0,0,.44,1.76A2.5,2.5,0,0,0,275.06,302.94Z"/><path class="cls-2" d="M287.4,293.38a5.45,5.45,0,0,1,1.91-1.74,5.17,5.17,0,0,1,2.55-.61,3.35,3.35,0,0,1,2.91,1.27,5.27,5.27,0,0,1,.53,3.92l-1.16,7.72h-1.41l1.16-7.71q.33-2.26-.33-3.12a2.58,2.58,0,0,0-2.2-.87,4.13,4.13,0,0,0-2.5.77,5.44,5.44,0,0,0-1.67,2l-1.33,8.89h-1.41l1.9-12.68h1.24Z"/><path class="cls-2" d="M305.84,303.94c0-.48,0-.88,0-1.18a7.57,7.57,0,0,1,.07-.94,6.4,6.4,0,0,1-2.09,1.69,5.92,5.92,0,0,1-2.81.68,3.47,3.47,0,0,1-2.7-1,3.06,3.06,0,0,1-.66-2.67,3.83,3.83,0,0,1,1.89-2.79,7.5,7.5,0,0,1,4-1h3.12l.23-1.57a2.4,2.4,0,0,0-.53-2.16,3.14,3.14,0,0,0-2.33-.75,4.12,4.12,0,0,0-2.4.71,2.6,2.6,0,0,0-1.18,1.76h-1.29l0-.07a3.59,3.59,0,0,1,1.6-2.53,5.84,5.84,0,0,1,3.55-1.06,4.46,4.46,0,0,1,3.16,1.07,3.3,3.3,0,0,1,.85,3l-.94,6.24a12.61,12.61,0,0,0-.13,1.31,6.45,6.45,0,0,0,.07,1.24Zm-4.52-1a5.58,5.58,0,0,0,2.88-.77,4.9,4.9,0,0,0,1.93-2l.37-2.43h-3.12a5.24,5.24,0,0,0-2.92.82,2.87,2.87,0,0,0-1.44,1.95,2,2,0,0,0,.44,1.76A2.46,2.46,0,0,0,301.32,302.94Z"/><path class="cls-2" d="M311.14,297.71a9.46,9.46,0,0,1,2-4.92A4.87,4.87,0,0,1,317,291a4,4,0,0,1,2.22.59,3.82,3.82,0,0,1,1.42,1.69l.51-2.05h1.14L320.38,304a5.92,5.92,0,0,1-1.9,3.79,6,6,0,0,1-4,1.26,8.82,8.82,0,0,1-1.91-.22,6.73,6.73,0,0,1-1.73-.61l.45-1.18a6.08,6.08,0,0,0,1.55.56,7.9,7.9,0,0,0,1.81.2,4.23,4.23,0,0,0,2.91-1A4.53,4.53,0,0,0,319,304l.27-1.79a5.29,5.29,0,0,1-4.22,2,3.61,3.61,0,0,1-3.26-1.72,6.52,6.52,0,0,1-.64-4.52Zm1.38.24a5.84,5.84,0,0,0,.35,3.69,2.67,2.67,0,0,0,2.59,1.33,4.35,4.35,0,0,0,2.3-.62,5.21,5.21,0,0,0,1.7-1.67l.91-6a3.6,3.6,0,0,0-1.1-1.74,3.21,3.21,0,0,0-2.17-.68,3.66,3.66,0,0,0-3,1.55,8.13,8.13,0,0,0-1.56,3.92Z"/><path class="cls-2" d="M328.85,304.19a4.36,4.36,0,0,1-3.69-1.76,5.67,5.67,0,0,1-.91-4.45l.1-.65a7.64,7.64,0,0,1,2.21-4.58,5.8,5.8,0,0,1,4.13-1.72,3.77,3.77,0,0,1,3.3,1.5,5.28,5.28,0,0,1,.71,4l-.16,1.09h-8.83l-.06.39a5.19,5.19,0,0,0,.55,3.63A3.1,3.1,0,0,0,329,303a6.48,6.48,0,0,0,2.17-.38,5.74,5.74,0,0,0,1.79-1l.46,1a6.39,6.39,0,0,1-1.93,1.16A7.11,7.11,0,0,1,328.85,304.19Zm1.67-12a3.94,3.94,0,0,0-2.79,1.17,6,6,0,0,0-1.7,2.93l0,.07h7.27l0-.29a3.89,3.89,0,0,0-.46-2.81A2.64,2.64,0,0,0,330.52,292.22Z"/><path class="cls-2" d="M339.34,293.26a5.13,5.13,0,0,1,4.37-2.23,3.54,3.54,0,0,1,2.26.69,3.22,3.22,0,0,1,1.12,2.11,5.7,5.7,0,0,1,1.94-2.07,5,5,0,0,1,2.7-.73,3.26,3.26,0,0,1,2.89,1.36,5.86,5.86,0,0,1,.53,4.16L354,303.94h-1.41l1.11-7.42c.24-1.62.14-2.74-.31-3.36a2.52,2.52,0,0,0-2.17-.92,3.62,3.62,0,0,0-2.6,1,5.8,5.8,0,0,0-1.54,2.57l-.07.51-1.14,7.61H344.5l1.11-7.42c.23-1.59.13-2.7-.32-3.33a2.5,2.5,0,0,0-2.18-.95,3.81,3.81,0,0,0-2.43.78,5.13,5.13,0,0,0-1.57,2.06l-1.33,8.86h-1.4l1.89-12.68h1.25Z"/><path class="cls-2" d="M362.47,304.19a4.36,4.36,0,0,1-3.69-1.76,5.67,5.67,0,0,1-.91-4.45l.1-.65a7.7,7.7,0,0,1,2.21-4.58,5.8,5.8,0,0,1,4.13-1.72,3.77,3.77,0,0,1,3.3,1.5,5.28,5.28,0,0,1,.71,4l-.16,1.09h-8.83l-.06.39a5.19,5.19,0,0,0,.55,3.63,3.1,3.1,0,0,0,2.83,1.39,6.44,6.44,0,0,0,2.17-.38,5.74,5.74,0,0,0,1.79-1l.46,1a6.39,6.39,0,0,1-1.93,1.16A7.11,7.11,0,0,1,362.47,304.19Zm1.67-12a4,4,0,0,0-2.79,1.17,6,6,0,0,0-1.7,2.93l0,.07h7.27l0-.29a3.94,3.94,0,0,0-.45-2.81A2.66,2.66,0,0,0,364.14,292.22Z"/><path class="cls-2" d="M373,293.38a5.33,5.33,0,0,1,1.9-1.74,5.23,5.23,0,0,1,2.55-.61,3.36,3.36,0,0,1,2.92,1.27,5.32,5.32,0,0,1,.52,3.92l-1.16,7.72h-1.4l1.16-7.71c.22-1.51.11-2.55-.34-3.12a2.58,2.58,0,0,0-2.19-.87,4.11,4.11,0,0,0-2.5.77,5.35,5.35,0,0,0-1.67,2l-1.34,8.89H370l1.9-12.68h1.24Z"/><path class="cls-2" d="M388,288l-.49,3.25h2.79l-.16,1.15h-2.8l-1.23,8.26a2.43,2.43,0,0,0,.17,1.79,1.34,1.34,0,0,0,1.14.5,4.75,4.75,0,0,0,.51,0l.57-.09.06,1a3.06,3.06,0,0,1-.74.23,4,4,0,0,1-.84.09,2.3,2.3,0,0,1-1.93-.85,3.51,3.51,0,0,1-.36-2.67l1.23-8.26h-2.18l.16-1.15h2.19l.5-3.25Z"/><path class="cls-2" d="M43,262.38a6.25,6.25,0,0,0-1.38-4.27,13.75,13.75,0,0,0-5-3.05q-6.93-2.44-10.44-5.54t-3.5-8.68a11.43,11.43,0,0,1,4-9,15,15,0,0,1,10.19-3.48q6.57,0,10.57,3.72a12.59,12.59,0,0,1,3.87,10l-.06.18H42.76a7.94,7.94,0,0,0-1.56-5.31,5.61,5.61,0,0,0-4.48-1.82,4.84,4.84,0,0,0-3.91,1.66,6.22,6.22,0,0,0-1.39,4.14A5,5,0,0,0,33,244.65a20.94,20.94,0,0,0,5.42,3.25q6.54,2.17,9.9,5.49a12,12,0,0,1,3.37,8.92,11.28,11.28,0,0,1-3.94,9.11q-3.93,3.33-10.44,3.32a17.17,17.17,0,0,1-11-3.58c-3-2.38-4.51-6-4.4-10.89l.06-.19h8.52q0,4.25,1.72,6.11a6.58,6.58,0,0,0,5.07,1.86,5.45,5.45,0,0,0,4.23-1.55A5.9,5.9,0,0,0,43,262.38Z"/><path class="cls-2" d="M66.56,274.09H57.85V229h8.71Z"/><path class="cls-2" d="M93.61,262.44h.19L102.26,229H113.7v45.12H105V245.67l-.19,0-8.15,28.45H90.82l-8.08-28.23-.19,0v28.2H73.84V229H85.22Z"/><path class="cls-2" d="M129.22,257.76v16.33h-8.74V229h15.09q6.8,0,10.76,4a15.72,15.72,0,0,1,0,20.86q-4,3.94-10.76,3.95Zm0-6.85h6.35a5.17,5.17,0,0,0,4.48-2.11,8.88,8.88,0,0,0,1.53-5.36,9.23,9.23,0,0,0-1.53-5.47,5.15,5.15,0,0,0-4.48-2.15h-6.35Z"/><path class="cls-2" d="M164.61,267.27h16.83v6.82H155.87V229h8.74Z"/><path class="cls-2" d="M193.37,248.59h.18L201.33,229h9.55l-13.17,29v16.08H189V257.45L176.08,229h9.54Z"/><path class="cls-2" d="M228.67,274.09V229h13.91a14.85,14.85,0,0,1,11.68,5.28q4.62,5.3,4.62,13.56v7.47q0,8.31-4.62,13.56a14.88,14.88,0,0,1-11.68,5.25Zm8.73-38.27v31.45h5.18a6.21,6.21,0,0,0,5.45-3.34,16.18,16.18,0,0,0,2.08-8.65v-7.53a16,16,0,0,0-2.08-8.59,6.21,6.21,0,0,0-5.45-3.34Z"/><path class="cls-2" d="M297,257.85q0,8-4.5,12.43t-12,4.46q-7.47,0-11.93-4.46t-4.46-12.43V245.27q0-7.94,4.45-12.44t11.91-4.51q7.47,0,12,4.51T297,245.27Zm-8.71-12.67q0-4.94-2-7.44a7,7,0,0,0-5.78-2.51,6.79,6.79,0,0,0-5.73,2.49c-1.28,1.67-1.92,4.15-1.92,7.46v12.67q0,5,1.93,7.53a6.8,6.8,0,0,0,5.75,2.51,6.88,6.88,0,0,0,5.78-2.51q2-2.5,2-7.53Z"/><path class="cls-2" d="M335.11,274.09h-8.73L312.06,245.3l-.19,0v28.76h-8.74V229h8.74l14.32,28.82.19,0V229h8.73Z"/><path class="cls-2" d="M364.58,254.16H350.79v13.11h16.52v6.82H342.06V229h25.19v6.85H350.79v11.53h13.79Z"/><path class="cls-2" d="M377,230.86h-2v7.51h-1.66v-7.51h-1.94v-1.41H377Zm7.4,2.3h-.1l-1.81,5.24h-.88l-1.89-5.48-.1,0v5.46h-1.56v-8.94H380l2,6.5h.1l2-6.5H386v8.94h-1.56Z"/></g></g></svg>